<svg id="Composant_2_1" data-name="Composant 2 – 1" xmlns="http://www.w3.org/2000/svg" xmlns:xlink="http://www.w3.org/1999/xlink" width="186.567" height="185.567" viewBox="0 0 186.567 185.567">
  <defs>
    <filter id="Ellipse_16" x="0" y="0" width="186.567" height="185.567" filterUnits="userSpaceOnUse">
      <feOffset dx="4" dy="3" input="SourceAlpha"/>
      <feGaussianBlur result="blur"/>
      <feFlood flood-opacity="0.161"/>
      <feComposite operator="in" in2="blur"/>
      <feComposite in="SourceGraphic"/>
    </filter>
  </defs>
  <g id="Groupe_54" data-name="Groupe 54" transform="translate(6491.545 -1226.289)">
    <g id="Groupe_53" data-name="Groupe 53">
      <g id="Groupe_52" data-name="Groupe 52" transform="translate(138.248 314)">
        <g transform="matrix(1, 0, 0, 1, -6629.79, 912.29)" filter="url(#Ellipse_16)">
          <ellipse id="Ellipse_16-2" data-name="Ellipse 16" cx="91.283" cy="91.283" rx="91.283" ry="91.283" transform="translate(0 0)" fill="#fff"/>
        </g>
      </g>
    </g>
  </g>
  <g id="Groupe_55" data-name="Groupe 55" transform="translate(6491.545 -1226.289)">
    <g id="Composant_1_1" data-name="Composant 1 – 1" transform="translate(-6457.632 1272.09)">
      <path id="Tracé_1" data-name="Tracé 1" d="M2915.332,499.294c.892,1.644,1.776,3.292,2.695,4.993-.2.011-.382.028-.563.028-3.621,0-7.243-.012-10.865.017a.957.957,0,0,1-.961-.563c-.806-1.495-1.6-2.995-2.412-4.486-1.661-3.051-3.334-6.1-4.991-9.148-1.123-2.069-2.221-4.153-3.344-6.223-1.649-3.036-3.316-6.061-4.963-9.1a17.27,17.27,0,0,0-1-1.772l-14.185,26.18c-1.146-2.148-2.246-4.218-3.357-6.283q-2.482-4.616-4.977-9.225c-.642-1.188-1.282-2.378-1.937-3.559a.555.555,0,0,1,.034-.6q1.733-3.176,3.463-6.354c.635-1.171,1.259-2.348,1.886-3.524a3.388,3.388,0,0,1,.183-.362c.106-.153.22-.391.357-.412.221-.033.249.256.335.417,1.346,2.5,2.686,4.994,4.05,7.536,1.326-2.445,2.62-4.839,3.921-7.229,1.366-2.507,2.742-5.009,4.107-7.518a.319.319,0,0,0,.033-.362c-1.048-1.889-2.081-3.787-3.113-5.686-.589-1.085-1.167-2.177-1.754-3.264-1.053-1.953-2.109-3.905-3.2-5.916-.53.949-1.043,1.848-1.537,2.757q-2.961,5.441-5.912,10.888c-1.157,2.139-2.291,4.291-3.454,6.428-1.816,3.339-3.654,6.667-5.473,10-1.145,2.1-2.263,4.219-3.406,6.322q-2.808,5.162-5.63,10.315-1.179,2.161-2.344,4.328-1.635,3.032-3.261,6.07a.491.491,0,0,1-.487.323q-5.814-.012-11.629-.013c-.032,0-.065-.03-.122-.057q1.336-2.459,2.669-4.912c.546-1,1.106-1.99,1.648-2.991q2.8-5.169,5.586-10.342c1.656-3.053,3.329-6.1,4.987-9.15.875-1.612,1.723-3.238,2.6-4.849,1.668-3.069,3.351-6.131,5.023-9.2.793-1.457,1.575-2.922,2.366-4.381q2.583-4.758,5.168-9.514c1.131-2.088,2.247-4.183,3.378-6.271q2.647-4.888,5.3-9.77c1.365-2.508,2.741-5.011,4.1-7.52a1.855,1.855,0,0,0,.3-.838,12.388,12.388,0,0,1,1.242,2.109c1.169,2.111,2.284,4.252,3.436,6.371,1.863,3.424,3.744,6.839,5.609,10.262.85,1.559,1.675,3.132,2.524,4.692,1.659,3.051,3.332,6.1,4.991,9.148.839,1.543,1.651,3.1,2.488,4.644,1.713,3.155,3.439,6.3,5.152,9.458.884,1.629,1.739,3.273,2.625,4.9,1.624,2.983,3.265,5.957,4.889,8.94.849,1.559,1.672,3.133,2.519,4.694Q2912.726,494.516,2915.332,499.294Zm30.936,4.917c-.179.127-.358.066-.524.066-3.6.006-7.2,0-10.8.017a.8.8,0,0,1-.862-.508c-.206-.462-.463-.9-.7-1.35q-2.525-4.631-5.048-9.262c-1.122-2.069-2.226-4.148-3.337-6.222q-2.071-3.782-4.14-7.564-1.905-3.49-3.8-6.985c-.064-.118-.107-.248-.159-.372h0c-1.288-2.348-2.582-4.692-3.861-7.044-.844-1.551-1.665-3.113-2.5-4.671q-2-3.646-4-7.293c-.726-1.329-1.435-2.667-2.15-4a.023.023,0,0,1,0-.008.024.024,0,0,0,0,.008l-1.285-2.289-2.928,5.479c-.753-1.38-1.467-2.682-2.175-3.988-1.2-2.21-2.384-4.426-3.6-6.628a.759.759,0,0,1,.009-.843q3.192-5.862,6.356-11.739c.762-1.409,1.529-2.815,2.356-4.336.59,1.122,1.135,2.162,1.681,3.2a.378.378,0,0,0-.239.268.378.378,0,0,1,.239-.268q1.99,3.627,3.977,7.255c.725,1.331,1.429,2.673,2.143,4.01h0q2.453,4.488,4.9,8.978c.6,1.112,1.189,2.235,1.781,3.353h0c.957,1.738,1.919,3.472,2.869,5.214q2.237,4.1,4.46,8.217c.074.135.128.281.192.421a.342.342,0,0,0-.145.242.342.342,0,0,1,.145-.242c1.349,2.459,2.7,4.916,4.046,7.379q2.337,4.289,4.656,8.589c.083.153.147.316.22.474,1.255,2.288,2.515,4.573,3.762,6.865q4.153,7.631,8.293,15.268C2946.177,504,2946.218,504.1,2946.268,504.211ZM2904.6,447.934c0-.03-.011-.059-.018-.089C2904.59,447.874,2904.6,447.9,2904.6,447.934Zm-.033.656a1.651,1.651,0,0,0,.048-.253A1.651,1.651,0,0,1,2904.569,448.59Zm-.144.385a2.161,2.161,0,0,0,.141-.375A2.161,2.161,0,0,1,2904.424,448.974Zm.2-.728c0,.027,0,.054-.006.081C2904.619,448.3,2904.621,448.273,2904.623,448.246Zm0-.091a1.4,1.4,0,0,0-.015-.177,1.4,1.4,0,0,1,.015.177v0Zm12.683,23.753a.227.227,0,0,1-.074.067.334.334,0,0,1-.064.028.749.749,0,0,1-.227.029.749.749,0,0,0,.227-.029.334.334,0,0,0,.064-.028A.227.227,0,0,0,2917.308,471.908ZM2925,465.65v0a.3.3,0,0,1,0-.039A.3.3,0,0,0,2925,465.65Z" transform="translate(-2831.526 -424.514)" fill="#fed104"/>
    </g>
  </g>
</svg>
