<svg xmlns="http://www.w3.org/2000/svg" xmlns:xlink="http://www.w3.org/1999/xlink" width="1920.5" height="1504.5" viewBox="0 0 1920.5 1504.5">
  <defs>
    <clipPath id="clip-path">
      <rect width="1504.5" height="1920.5" fill="none"/>
    </clipPath>
  </defs>
  <g id="Grille_de_répétition_2" data-name="Grille de répétition 2" transform="translate(1920.5) rotate(90)" opacity="0.42" clip-path="url(#clip-path)">
    <g transform="translate(-0.5 -1133.5)">
      <line id="Ligne_1" data-name="Ligne 1" x2="1920" transform="translate(0.5 1136.5)" fill="none" stroke="#feda36" stroke-width="6"/>
    </g>
    <g transform="translate(-0.5 -1070.5)">
      <line id="Ligne_1-2" data-name="Ligne 1" x2="1920" transform="translate(0.5 1136.5)" fill="none" stroke="#feda36" stroke-width="6"/>
    </g>
    <g transform="translate(-0.5 -1007.5)">
      <line id="Ligne_1-3" data-name="Ligne 1" x2="1920" transform="translate(0.5 1136.5)" fill="none" stroke="#feda36" stroke-width="6"/>
    </g>
    <g transform="translate(-0.5 -944.5)">
      <line id="Ligne_1-4" data-name="Ligne 1" x2="1920" transform="translate(0.5 1136.5)" fill="none" stroke="#feda36" stroke-width="6"/>
    </g>
    <g transform="translate(-0.5 -881.5)">
      <line id="Ligne_1-5" data-name="Ligne 1" x2="1920" transform="translate(0.5 1136.5)" fill="none" stroke="#feda36" stroke-width="6"/>
    </g>
    <g transform="translate(-0.5 -818.5)">
      <line id="Ligne_1-6" data-name="Ligne 1" x2="1920" transform="translate(0.5 1136.5)" fill="none" stroke="#feda36" stroke-width="6"/>
    </g>
    <g transform="translate(-0.5 -755.5)">
      <line id="Ligne_1-7" data-name="Ligne 1" x2="1920" transform="translate(0.5 1136.5)" fill="none" stroke="#feda36" stroke-width="6"/>
    </g>
    <g transform="translate(-0.5 -692.5)">
      <line id="Ligne_1-8" data-name="Ligne 1" x2="1920" transform="translate(0.5 1136.5)" fill="none" stroke="#feda36" stroke-width="6"/>
    </g>
    <g transform="translate(-0.5 -629.5)">
      <line id="Ligne_1-9" data-name="Ligne 1" x2="1920" transform="translate(0.5 1136.5)" fill="none" stroke="#feda36" stroke-width="6"/>
    </g>
    <g transform="translate(-0.5 -566.5)">
      <line id="Ligne_1-10" data-name="Ligne 1" x2="1920" transform="translate(0.5 1136.5)" fill="none" stroke="#feda36" stroke-width="6"/>
    </g>
    <g transform="translate(-0.5 -503.5)">
      <line id="Ligne_1-11" data-name="Ligne 1" x2="1920" transform="translate(0.5 1136.5)" fill="none" stroke="#feda36" stroke-width="6"/>
    </g>
    <g transform="translate(-0.5 -440.5)">
      <line id="Ligne_1-12" data-name="Ligne 1" x2="1920" transform="translate(0.5 1136.5)" fill="none" stroke="#feda36" stroke-width="6"/>
    </g>
    <g transform="translate(-0.5 -377.5)">
      <line id="Ligne_1-13" data-name="Ligne 1" x2="1920" transform="translate(0.5 1136.5)" fill="none" stroke="#feda36" stroke-width="6"/>
    </g>
    <g transform="translate(-0.5 -314.5)">
      <line id="Ligne_1-14" data-name="Ligne 1" x2="1920" transform="translate(0.5 1136.5)" fill="none" stroke="#feda36" stroke-width="6"/>
    </g>
    <g transform="translate(-0.5 -251.5)">
      <line id="Ligne_1-15" data-name="Ligne 1" x2="1920" transform="translate(0.5 1136.5)" fill="none" stroke="#feda36" stroke-width="6"/>
    </g>
    <g transform="translate(-0.5 -188.5)">
      <line id="Ligne_1-16" data-name="Ligne 1" x2="1920" transform="translate(0.5 1136.5)" fill="none" stroke="#feda36" stroke-width="6"/>
    </g>
    <g transform="translate(-0.5 -125.5)">
      <line id="Ligne_1-17" data-name="Ligne 1" x2="1920" transform="translate(0.5 1136.5)" fill="none" stroke="#feda36" stroke-width="6"/>
    </g>
    <g transform="translate(-0.5 -62.5)">
      <line id="Ligne_1-18" data-name="Ligne 1" x2="1920" transform="translate(0.5 1136.5)" fill="none" stroke="#feda36" stroke-width="6"/>
    </g>
    <g transform="translate(-0.5 0.5)">
      <line id="Ligne_1-19" data-name="Ligne 1" x2="1920" transform="translate(0.5 1136.5)" fill="none" stroke="#feda36" stroke-width="6"/>
    </g>
    <g transform="translate(-0.5 63.5)">
      <line id="Ligne_1-20" data-name="Ligne 1" x2="1920" transform="translate(0.5 1136.5)" fill="none" stroke="#feda36" stroke-width="6"/>
    </g>
    <g transform="translate(-0.5 126.5)">
      <line id="Ligne_1-21" data-name="Ligne 1" x2="1920" transform="translate(0.5 1136.5)" fill="none" stroke="#feda36" stroke-width="6"/>
    </g>
    <g transform="translate(-0.5 189.5)">
      <line id="Ligne_1-22" data-name="Ligne 1" x2="1920" transform="translate(0.5 1136.5)" fill="none" stroke="#feda36" stroke-width="6"/>
    </g>
    <g transform="translate(-0.5 252.5)">
      <line id="Ligne_1-23" data-name="Ligne 1" x2="1920" transform="translate(0.5 1136.5)" fill="none" stroke="#feda36" stroke-width="6"/>
    </g>
    <g transform="translate(-0.5 315.5)">
      <line id="Ligne_1-24" data-name="Ligne 1" x2="1920" transform="translate(0.5 1136.5)" fill="none" stroke="#feda36" stroke-width="6"/>
    </g>
    <g transform="translate(-0.5 378.5)">
      <line id="Ligne_1-25" data-name="Ligne 1" x2="1920" transform="translate(0.5 1136.5)" fill="none" stroke="#feda36" stroke-width="6"/>
    </g>
    <g transform="translate(-0.5 441.5)">
      <line id="Ligne_1-26" data-name="Ligne 1" x2="1920" transform="translate(0.5 1136.5)" fill="none" stroke="#feda36" stroke-width="6"/>
    </g>
    <g transform="translate(-0.5 504.5)">
      <line id="Ligne_1-27" data-name="Ligne 1" x2="1920" transform="translate(0.5 1136.5)" fill="none" stroke="#feda36" stroke-width="6"/>
    </g>
    <g transform="translate(-0.5 567.5)">
      <line id="Ligne_1-28" data-name="Ligne 1" x2="1920" transform="translate(0.5 1136.5)" fill="none" stroke="#feda36" stroke-width="6"/>
    </g>
    <g transform="translate(-0.5 630.5)">
      <line id="Ligne_1-29" data-name="Ligne 1" x2="1920" transform="translate(0.5 1136.5)" fill="none" stroke="#feda36" stroke-width="6"/>
    </g>
    <g transform="translate(-0.5 693.5)">
      <line id="Ligne_1-30" data-name="Ligne 1" x2="1920" transform="translate(0.5 1136.5)" fill="none" stroke="#feda36" stroke-width="6"/>
    </g>
    <g transform="translate(-0.5 756.5)">
      <line id="Ligne_1-31" data-name="Ligne 1" x2="1920" transform="translate(0.5 1136.5)" fill="none" stroke="#feda36" stroke-width="6"/>
    </g>
  </g>
</svg>
