<svg xmlns="http://www.w3.org/2000/svg" width="95.988" height="110.542" viewBox="0 0 95.988 110.542">
  <g id="Latest-Landing" transform="matrix(0.921, -0.391, 0.391, 0.921, -4.837, 32.594)">
    <g id="Group" transform="translate(0.75 0.75)">
      <g id="Shapes-_-plus" data-name="Shapes-/-plus" transform="translate(0 0)">
        <path id="Path" d="M72.747,65.53V88.224H48.1v24.65H27.318a1.918,1.918,0,0,1-1.918-1.918V88.236H1.852a1.1,1.1,0,0,1-1.1-1.1V65.53H25.4V40.88H48.1V65.53Z" transform="translate(-0.75 -29.339)" fill="#ff78b0" stroke="#0d052c" stroke-linecap="round" stroke-linejoin="round" stroke-width="1"/>
        <path id="Path-2" data-name="Path" d="M.75,94.61l10.9-11.6A4.153,4.153,0,0,1,14.678,81.7H25.4V94.61Z" transform="translate(-0.75 -58.419)" fill="#002f93" stroke="#0d052c" stroke-linecap="round" stroke-linejoin="round" stroke-width="1.5"/>
        <path id="Path-3" data-name="Path" d="M144.566,27.14v18.3a4.053,4.053,0,0,1-.958,2.617l-9.8,11.582v-22.7H109.154V12.291H86.46L97.021,1.555A2.671,2.671,0,0,1,98.933.75h19.974a1.4,1.4,0,0,1,1.4,1.395V24.028h21.15a3.109,3.109,0,0,1,3.112,3.112Z" transform="translate(-61.81 -0.75)" fill="#002f93" stroke="#0d052c" stroke-linecap="round" stroke-linejoin="round" stroke-width="1"/>
        <path id="Path-4" data-name="Path" d="M177.906,205.5v9.882a5.013,5.013,0,0,1-1.438,3.517L165.39,230.15V205.5Z" transform="translate(-118.04 -146.614)" fill="#002f93" stroke="#0d052c" stroke-linecap="round" stroke-linejoin="round" stroke-width="1.5"/>
        <line id="Path-5" data-name="Path" x2="22.697" transform="translate(24.65 17.728)" fill="none" stroke="#0d052c" stroke-linecap="round" stroke-linejoin="round" stroke-width="1"/>
        <line id="Path-6" data-name="Path" x2="22.801" transform="translate(24.546 25.28)" fill="none" stroke="#0d052c" stroke-linecap="round" stroke-linejoin="round" stroke-width="1"/>
        <line id="Path-7" data-name="Path" x2="22.007" transform="translate(25.044 32.832)" fill="none" stroke="#0d052c" stroke-linecap="round" stroke-linejoin="round" stroke-width="1"/>
        <line id="Path-8" data-name="Path" x2="71.534" transform="translate(0.178 40.385)" fill="none" stroke="#0d052c" stroke-linecap="round" stroke-linejoin="round" stroke-width="1"/>
        <line id="Path-9" data-name="Path" x2="71.713" transform="translate(0 47.937)" fill="none" stroke="#0d052c" stroke-linecap="round" stroke-linejoin="round" stroke-width="1"/>
        <line id="Path-10" data-name="Path" x2="71.713" transform="translate(0 55.489)" fill="none" stroke="#0d052c" stroke-linecap="round" stroke-linejoin="round" stroke-width="1"/>
        <line id="Path-11" data-name="Path" x2="22.346" transform="translate(24.84 63.041)" fill="none" stroke="#0d052c" stroke-linecap="round" stroke-linejoin="round" stroke-width="1"/>
        <line id="Path-12" data-name="Path" x2="22.346" transform="translate(24.84 70.496)" fill="none" stroke="#0d052c" stroke-linecap="round" stroke-linejoin="round" stroke-width="1"/>
        <line id="Path-13" data-name="Path" x2="22.507" transform="translate(24.84 78.048)" fill="none" stroke="#0d052c" stroke-linecap="round" stroke-linejoin="round" stroke-width="1"/>
      </g>
    </g>
  </g>
</svg>
